MulatAbay-Bold.ufo
<glyph name="at" format="2">
  <advance width="1833"/>
  <unicode hex="0040"/>
  <note>
uni0040
</note>
  <outline>
    <contour>
      <point x="894" y="-453" type="curve" smooth="yes"/>
      <point x="1034" y="-453"/>
      <point x="1185.667" y="-417.333"/>
      <point x="1267" y="-364" type="curve"/>
      <point x="1229" y="-210" type="line"/>
      <point x="1141" y="-251.333"/>
      <point x="1008.667" y="-278"/>
      <point x="898" y="-278" type="curve" smooth="yes"/>
      <point x="478" y="-278"/>
      <point x="261.667" y="-9"/>
      <point x="283" y="463" type="curve" smooth="yes"/>
      <point x="297.667" y="773.667"/>
      <point x="417.667" y="1024.333"/>
      <point x="619" y="1155" type="curve" smooth="yes"/>
      <point x="719.667" y="1220.333"/>
      <point x="834.333" y="1253"/>
      <point x="963" y="1253" type="curve" smooth="yes"/>
      <point x="1375" y="1253"/>
      <point x="1592.667" y="994.333"/>
      <point x="1570" y="529" type="curve" smooth="yes"/>
      <point x="1562" y="297"/>
      <point x="1470.667" y="140"/>
      <point x="1348" y="140" type="curve" smooth="yes"/>
      <point x="1268" y="140"/>
      <point x="1229.667" y="197.667"/>
      <point x="1243" y="303" type="curve"/>
      <point x="1294" y="881" type="line"/>
      <point x="1163.667" y="968"/>
      <point x="1082.333" y="990"/>
      <point x="987" y="990" type="curve" smooth="yes"/>
      <point x="832.333" y="990"/>
      <point x="692.833" y="894.833"/>
      <point x="605.5" y="723.5" type="curve" smooth="yes"/>
      <point x="561.833" y="637.833"/>
      <point x="534" y="540"/>
      <point x="522" y="430" type="curve" smooth="yes"/>
      <point x="495.333" y="160.667"/>
      <point x="613.333" y="-18"/>
      <point x="808" y="-18" type="curve" smooth="yes"/>
      <point x="915.333" y="-18"/>
      <point x="1002.333" y="28.667"/>
      <point x="1069" y="122" type="curve"/>
      <point x="1111.667" y="30"/>
      <point x="1197.333" y="-21"/>
      <point x="1312" y="-21" type="curve" smooth="yes"/>
      <point x="1572" y="-21"/>
      <point x="1734.333" y="194.667"/>
      <point x="1749" y="536" type="curve" smooth="yes"/>
      <point x="1777.543" y="1265.23"/>
      <point x="1167" y="1416"/>
      <point x="967" y="1416" type="curve" smooth="yes"/>
      <point x="637.667" y="1416"/>
      <point x="365" y="1250"/>
      <point x="213" y="958" type="curve" smooth="yes"/>
      <point x="137" y="812"/>
      <point x="95" y="647"/>
      <point x="87" y="463" type="curve" smooth="yes"/>
      <point x="71" y="79"/>
      <point x="196" y="-204.5"/>
      <point x="444" y="-346.5" type="curve" smooth="yes"/>
      <point x="568" y="-417.5"/>
      <point x="718" y="-453"/>
    </contour>
    <contour>
      <point x="877" y="161" type="curve" smooth="yes"/>
      <point x="775.667" y="161"/>
      <point x="729.333" y="254"/>
      <point x="744" y="430" type="curve" smooth="yes"/>
      <point x="769.333" y="680.667"/>
      <point x="852" y="814"/>
      <point x="1005" y="814" type="curve" smooth="yes"/>
      <point x="1032" y="814"/>
      <point x="1059" y="810"/>
      <point x="1085" y="801" type="curve"/>
      <point x="1043" y="328" type="line"/>
      <point x="1004.333" y="220"/>
      <point x="942.333" y="161"/>
    </contour>
  </outline>
</glyph>
<glyph name="bracketleft" format="2">
  <advance width="569"/>
  <unicode hex="005B"/>
  <note>
uni005B
</note>
  <outline>
    <contour>
      <point x="120" y="-339" type="line"/>
      <point x="552" y="-339" type="line"/>
      <point x="552" y="-116" type="line"/>
      <point x="410" y="-116" type="line"/>
      <point x="410" y="1471" type="line"/>
      <point x="552" y="1471" type="line"/>
      <point x="552" y="1694" type="line"/>
      <point x="120" y="1694" type="line"/>
    </contour>
  </outline>
</glyph>
<glyph name="underscore" format="2">
  <advance width="914"/>
  <unicode hex="005F"/>
  <note>
uni005F
</note>
  <outline>
    <contour>
      <point x="1" y="-226" type="line"/>
      <point x="912" y="-226" type="line"/>
      <point x="912" y="0" type="line"/>
      <point x="1" y="0" type="line"/>
    </contour>
  </outline>
</glyph>
<glyph name="h" format="2">
  <advance width="1146"/>
  <unicode hex="0068"/>
  <note>
uni0068
</note>
  <outline>
    <contour>
      <point x="104" y="0" type="line"/>
      <point x="393" y="0" type="line"/>
      <point x="393" y="769" type="line"/>
      <point x="431" y="834.333"/>
      <point x="492.333" y="867"/>
      <point x="577" y="867" type="curve" smooth="yes"/>
      <point x="701" y="867"/>
      <point x="750" y="809"/>
      <point x="750" y="685" type="curve" smooth="yes"/>
      <point x="750" y="0" type="line"/>
      <point x="1039" y="0" type="line"/>
      <point x="1039" y="693" type="line" smooth="yes"/>
      <point x="1035.667" y="965.667"/>
      <point x="916.667" y="1102"/>
      <point x="682" y="1102" type="curve" smooth="yes"/>
      <point x="566" y="1102"/>
      <point x="469.667" y="1056"/>
      <point x="393" y="964" type="curve"/>
      <point x="393" y="1536" type="line"/>
      <point x="104" y="1536" type="line"/>
    </contour>
  </outline>
</glyph>
<glyph name="ordfeminine" format="2">
  <advance width="909"/>
  <unicode hex="00AA"/>
  <note>
uni00AA
</note>
  <outline>
    <contour>
      <point x="386" y="691" type="curve" smooth="yes"/>
      <point x="468.667" y="691"/>
      <point x="535.667" y="718.333"/>
      <point x="587" y="773" type="curve"/>
      <point x="591.667" y="745.667"/>
      <point x="597.333" y="723"/>
      <point x="604" y="705" type="curve"/>
      <point x="781" y="705" type="line"/>
      <point x="763.667" y="759"/>
      <point x="755" y="818.333"/>
      <point x="755" y="883" type="curve" smooth="yes"/>
      <point x="755" y="1199" type="line" smooth="yes"/>
      <point x="755" y="1376.333"/>
      <point x="644" y="1476"/>
      <point x="464" y="1476" type="curve" smooth="yes"/>
      <point x="282.667" y="1476"/>
      <point x="153" y="1381.667"/>
      <point x="153" y="1243" type="curve"/>
      <point x="326" y="1229" type="line"/>
      <point x="326" y="1293"/>
      <point x="377.333" y="1328"/>
      <point x="464" y="1328" type="curve" smooth="yes"/>
      <point x="541.333" y="1328"/>
      <point x="580" y="1285.667"/>
      <point x="580" y="1201" type="curve" smooth="yes"/>
      <point x="580" y="1150" type="line"/>
      <point x="478" y="1150" type="line" smooth="yes"/>
      <point x="247.333" y="1150"/>
      <point x="137" y="1065.667"/>
      <point x="137" y="919" type="curve" smooth="yes"/>
      <point x="137" y="779"/>
      <point x="228.667" y="691"/>
    </contour>
    <contour>
      <point x="429" y="835" type="curve" smooth="yes"/>
      <point x="351" y="835"/>
      <point x="312" y="864.333"/>
      <point x="312" y="923" type="curve" smooth="yes"/>
      <point x="312" y="988.333"/>
      <point x="372.667" y="1031.667"/>
      <point x="474" y="1033" type="curve" smooth="yes"/>
      <point x="580" y="1033" type="line"/>
      <point x="580" y="897" type="line"/>
      <point x="544" y="863.667"/>
      <point x="482.333" y="835"/>
    </contour>
  </outline>
</glyph>
<glyph name="Eth" format="2">
  <advance width="1361"/>
  <unicode hex="00D0"/>
  <note>
uni00D0
</note>
  <outline>
    <contour>
      <point x="160" y="0" type="line"/>
      <point x="611" y="0" type="line" smooth="yes"/>
      <point x="1193.959" y="7.183"/>
      <point x="1273" y="594"/>
      <point x="1273" y="694" type="curve" smooth="yes"/>
      <point x="1273" y="761" type="line" smooth="yes"/>
      <point x="1273" y="1031.667"/>
      <point x="1153.5" y="1254.167"/>
      <point x="951.5" y="1369.5" type="curve" smooth="yes"/>
      <point x="850.5" y="1427.167"/>
      <point x="736" y="1456"/>
      <point x="608" y="1456" type="curve" smooth="yes"/>
      <point x="160" y="1456" type="line"/>
      <point x="160" y="825" type="line"/>
      <point x="-20" y="825" type="line"/>
      <point x="-20" y="642" type="line"/>
      <point x="160" y="642" type="line"/>
    </contour>
    <contour>
      <point x="460" y="241" type="line"/>
      <point x="460" y="642" type="line"/>
      <point x="679" y="642" type="line"/>
      <point x="679" y="825" type="line"/>
      <point x="460" y="825" type="line"/>
      <point x="460" y="1213" type="line"/>
      <point x="608" y="1213" type="line" smooth="yes"/>
      <point x="844" y="1213"/>
      <point x="969" y="1058"/>
      <point x="969" y="762" type="curve" smooth="yes"/>
      <point x="969" y="694" type="line" smooth="yes"/>
      <point x="969" y="403.333"/>
      <point x="842.333" y="241"/>
      <point x="605" y="241" type="curve" smooth="yes"/>
    </contour>
  </outline>
</glyph>
<glyph name="oslash" format="2">
  <advance width="1158"/>
  <unicode hex="00F8"/>
  <note>
uni00F8
</note>
  <outline>
    <contour>
      <point x="579" y="-20" type="curve" smooth="yes"/>
      <point x="891" y="-20"/>
      <point x="1091" y="198"/>
      <point x="1091" y="530" type="curve" smooth="yes"/>
      <point x="1067.667" y="910.667"/>
      <point x="869" y="1102"/>
      <point x="577" y="1102" type="curve" smooth="yes"/>
      <point x="203.123" y="1100.954"/>
      <point x="66" y="818"/>
      <point x="66" y="538" type="curve" smooth="yes"/>
      <point x="66" y="194"/>
      <point x="267" y="-20"/>
    </contour>
    <contour>
      <point x="579" y="213" type="curve" smooth="yes"/>
      <point x="435" y="213"/>
      <point x="355" y="324.667"/>
      <point x="355" y="530" type="curve" smooth="yes"/>
      <point x="355" y="760.667"/>
      <point x="435.667" y="868"/>
      <point x="577" y="868" type="curve" smooth="yes"/>
      <point x="719.667" y="868"/>
      <point x="802" y="752.333"/>
      <point x="802" y="551" type="curve" smooth="yes"/>
      <point x="802" y="315"/>
      <point x="719" y="213"/>
    </contour>
    <contour>
      <point x="197" y="-325" type="line"/>
      <point x="412" y="-325" type="line"/>
      <point x="948" y="1256" type="line"/>
      <point x="733" y="1256" type="line"/>
    </contour>
  </outline>
</glyph>
<glyph name="comma-ethiopic" format="2">
  <advance width="556"/>
  <unicode hex="1363"/>
  <outline>
    <contour>
      <point x="108" y="952" type="line"/>
      <point x="457" y="952" type="line"/>
      <point x="457" y="1119" type="line"/>
      <point x="108" y="1119" type="line"/>
    </contour>
    <component base="period" xOffset="20" yOffset="83"/>
    <component base="period" xOffset="21" yOffset="553"/>
  </outline>
</glyph>
<glyph name="semicolon-ethiopic" format="2">
  <advance width="556"/>
  <unicode hex="1364"/>
  <outline>
    <contour>
      <point x="128" y="975" type="line"/>
      <point x="488" y="975" type="line"/>
      <point x="488" y="1143" type="line"/>
      <point x="128" y="1143" type="line"/>
    </contour>
    <contour>
      <point x="130" y="-172" type="line"/>
      <point x="494" y="-172" type="line"/>
      <point x="494" y="16" type="line"/>
      <point x="130" y="16" type="line"/>
    </contour>
    <component base="period" xOffset="21" yOffset="566"/>
    <component base="period" xOffset="20" yOffset="95"/>
  </outline>
</glyph>
<glyph name="colon-ethiopic" format="2">
  <advance width="556"/>
  <unicode hex="1365"/>
  <outline>
    <contour>
      <point x="154" y="512" type="line"/>
      <point x="483" y="512" type="line"/>
      <point x="483" y="651" type="line"/>
      <point x="154" y="651" type="line"/>
    </contour>
    <component base="period" xOffset="20" yOffset="90"/>
    <component base="period" xOffset="21" yOffset="793"/>
  </outline>
</glyph>
<glyph name="prefacecolon-ethiopic" format="2">
  <advance width="730"/>
  <unicode hex="1366"/>
  <outline>
    <contour>
      <point x="333" y="507" type="line"/>
      <point x="613" y="507" type="line"/>
      <point x="613" y="655" type="line"/>
      <point x="333" y="655" type="line"/>
    </contour>
    <component base="period" xOffset="-72" yOffset="131"/>
    <component base="period" xOffset="-81" yOffset="727"/>
  </outline>
</glyph>
<glyph name="question-ethiopic" format="2">
  <advance width="556"/>
  <unicode hex="1367"/>
  <outline>
    <contour>
      <point x="315" y="441" type="curve" smooth="yes"/>
      <point x="407" y="441"/>
      <point x="463" y="497"/>
      <point x="463" y="577" type="curve" smooth="yes"/>
      <point x="463" y="657"/>
      <point x="407" y="714"/>
      <point x="315" y="714" type="curve" smooth="yes"/>
      <point x="226" y="714"/>
      <point x="167" y="657"/>
      <point x="167" y="577" type="curve" smooth="yes"/>
      <point x="167" y="497"/>
      <point x="224" y="441"/>
    </contour>
    <component base="period" xOffset="20"/>
    <component base="period" xOffset="-22" yOffset="829"/>
  </outline>
</glyph>
<glyph name="nine-ethiopic" format="2">
  <advance width="1317"/>
  <unicode hex="1371"/>
  <outline>
    <contour>
      <point x="667" y="-20" type="curve" smooth="yes"/>
      <point x="988" y="-20"/>
      <point x="1158" y="199"/>
      <point x="1158" y="602" type="curve" smooth="yes"/>
      <point x="1158" y="870" type="line" smooth="yes"/>
      <point x="1158" y="1148"/>
      <point x="1069" y="1338"/>
      <point x="903" y="1424" type="curve"/>
      <point x="778" y="1207" type="line"/>
      <point x="815.134" y="1178.251"/>
      <point x="840.429" y="1130.491"/>
      <point x="854.747" y="1062" type="curve"/>
      <point x="475.192" y="1062" type="line"/>
      <point x="490.705" y="1139.317"/>
      <point x="521.12" y="1190.472"/>
      <point x="567" y="1218" type="curve"/>
      <point x="407" y="1412" type="line"/>
      <point x="255" y="1320"/>
      <point x="174" y="1133"/>
      <point x="174" y="855" type="curve" smooth="yes"/>
      <point x="174" y="587" type="line" smooth="yes"/>
      <point x="174" y="196"/>
      <point x="350" y="-20"/>
    </contour>
    <contour>
      <point x="667" y="213" type="curve" smooth="yes"/>
      <point x="524" y="213"/>
      <point x="463" y="327"/>
      <point x="463" y="564" type="curve" smooth="yes"/>
      <point x="463" y="826" type="line"/>
      <point x="869" y="826" type="line"/>
      <point x="869" y="550" type="line" smooth="yes"/>
      <point x="869" y="322"/>
      <point x="805" y="213"/>
    </contour>
    <component base="_num.bar" xOffset="95"/>
  </outline>
</glyph>
<glyph name="ten-ethiopic" format="2">
  <advance width="1150"/>
  <unicode hex="1372"/>
  <outline>
    <contour>
      <point x="512" y="0" type="line"/>
      <point x="801" y="0" type="line"/>
      <point x="801" y="1458" type="line" name="❌"/>
      <point x="770" y="1458" type="line" name="❌"/>
      <point x="512" y="1114" type="line"/>
    </contour>
    <component base="_num.bar"/>
  </outline>
</glyph>
<glyph name="bullet" format="2">
  <advance width="736"/>
  <unicode hex="2022"/>
  <note>
uni2022
</note>
  <outline>
    <contour>
      <point x="373" y="500" type="curve" smooth="yes"/>
      <point x="514.333" y="500"/>
      <point x="610" y="590.667"/>
      <point x="610" y="728" type="curve" smooth="yes"/>
      <point x="610" y="771" type="line" smooth="yes"/>
      <point x="607.333" y="905.667"/>
      <point x="515" y="996"/>
      <point x="371" y="996" type="curve" smooth="yes"/>
      <point x="232.333" y="996"/>
      <point x="135" y="904.667"/>
      <point x="135" y="766" type="curve" smooth="yes"/>
      <point x="135" y="731" type="line" smooth="yes"/>
      <point x="135" y="588.333"/>
      <point x="233" y="500"/>
    </contour>
  </outline>
</glyph>
<glyph name="perthousand" format="2">
  <advance width="1965"/>
  <unicode hex="2030"/>
  <note>
uni2030
</note>
  <outline>
    <contour>
      <point x="470" y="109" type="line"/>
      <point x="1181" y="1247" type="line"/>
      <point x="1040" y="1323" type="line"/>
      <point x="329" y="185" type="line"/>
    </contour>
    <contour>
      <point x="1130" y="146" type="curve" smooth="yes"/>
      <point x="1059.333" y="146"/>
      <point x="1005" y="203"/>
      <point x="1005" y="279" type="curve" smooth="yes"/>
      <point x="1005" y="354" type="line" smooth="yes"/>
      <point x="1005" y="438"/>
      <point x="1054.667" y="490"/>
      <point x="1128" y="490" type="curve" smooth="yes"/>
      <point x="1202.667" y="490"/>
      <point x="1252" y="437"/>
      <point x="1252" y="357" type="curve" smooth="yes"/>
      <point x="1252" y="281" type="line" smooth="yes"/>
      <point x="1252" y="191"/>
      <point x="1211.333" y="146"/>
    </contour>
    <contour>
      <point x="390" y="966" type="curve" smooth="yes"/>
      <point x="312.667" y="966"/>
      <point x="265" y="1020.333"/>
      <point x="265" y="1099" type="curve" smooth="yes"/>
      <point x="265" y="1171" type="line" smooth="yes"/>
      <point x="265" y="1256.333"/>
      <point x="312" y="1309"/>
      <point x="388" y="1309" type="curve" smooth="yes"/>
      <point x="462.667" y="1309"/>
      <point x="512" y="1255"/>
      <point x="512" y="1175" type="curve" smooth="yes"/>
      <point x="512" y="1102" type="line" smooth="yes"/>
      <point x="512" y="1019.333"/>
      <point x="464.667" y="966"/>
    </contour>
    <contour>
      <point x="390" y="800" type="curve" smooth="yes"/>
      <point x="575.333" y="800"/>
      <point x="705" y="925.667"/>
      <point x="705" y="1099" type="curve" smooth="yes"/>
      <point x="705" y="1169" type="line" smooth="yes"/>
      <point x="705" y="1353"/>
      <point x="576" y="1476"/>
      <point x="388" y="1476" type="curve" smooth="yes"/>
      <point x="210.667" y="1476"/>
      <point x="87" y="1349.667"/>
      <point x="87" y="1175" type="curve" smooth="yes"/>
      <point x="87" y="1106" type="line" smooth="yes"/>
      <point x="87" y="923.333"/>
      <point x="212.667" y="800"/>
    </contour>
    <contour>
      <point x="1130" y="-20" type="curve" smooth="yes"/>
      <point x="1226.667" y="-20"/>
      <point x="1302" y="15"/>
      <point x="1356" y="85" type="curve"/>
      <point x="1410" y="15"/>
      <point x="1486.333" y="-20"/>
      <point x="1585" y="-20" type="curve" smooth="yes"/>
      <point x="1774.333" y="-20"/>
      <point x="1900" y="108.333"/>
      <point x="1900" y="279" type="curve" smooth="yes"/>
      <point x="1900" y="350" type="line" smooth="yes"/>
      <point x="1900" y="536.667"/>
      <point x="1767" y="657"/>
      <point x="1583" y="657" type="curve" smooth="yes"/>
      <point x="1485.667" y="657"/>
      <point x="1410" y="622"/>
      <point x="1356" y="552" type="curve"/>
      <point x="1302" y="622"/>
      <point x="1226" y="657"/>
      <point x="1128" y="657" type="curve" smooth="yes"/>
      <point x="941.333" y="657"/>
      <point x="812" y="529"/>
      <point x="812" y="357" type="curve" smooth="yes"/>
      <point x="812" y="283" type="line" smooth="yes"/>
      <point x="812" y="107"/>
      <point x="940.667" y="-20"/>
    </contour>
    <contour>
      <point x="1585" y="146" type="curve" smooth="yes"/>
      <point x="1511.667" y="146"/>
      <point x="1460" y="207"/>
      <point x="1460" y="279" type="curve" smooth="yes"/>
      <point x="1460" y="354" type="line" smooth="yes"/>
      <point x="1460" y="438"/>
      <point x="1509.667" y="490"/>
      <point x="1583" y="490" type="curve" smooth="yes"/>
      <point x="1657.667" y="490"/>
      <point x="1707" y="437"/>
      <point x="1707" y="357" type="curve" smooth="yes"/>
      <point x="1707" y="281" type="line" smooth="yes"/>
      <point x="1707" y="191"/>
      <point x="1666.333" y="146"/>
    </contour>
  </outline>
</glyph>
<glyph name="fraction" format="2">
  <advance width="913"/>
  <unicode hex="2044"/>
  <note>
uni2044
</note>
  <outline>
    <contour>
      <point x="171" y="109" type="line"/>
      <point x="882" y="1247" type="line"/>
      <point x="741" y="1323" type="line"/>
      <point x="30" y="185" type="line"/>
    </contour>
  </outline>
</glyph>
<glyph name="lozenge" format="2">
  <advance width="1042"/>
  <unicode hex="25CA"/>
  <note>
uni25CA
</note>
  <outline>
    <contour>
      <point x="400" y="0" type="line"/>
      <point x="647" y="0" type="line"/>
      <point x="1015" y="727" type="line"/>
      <point x="646" y="1456" type="line"/>
      <point x="399" y="1456" type="line"/>
      <point x="31" y="727" type="line"/>
    </contour>
    <contour>
      <point x="524" y="303" type="line"/>
      <point x="318" y="727" type="line"/>
      <point x="522" y="1152" type="line"/>
      <point x="727" y="727" type="line"/>
    </contour>
  </outline>
</glyph>
<glyph name="_smart.aGlhat" format="2">
  <anchor x="198" y="1242" name="_aGlhat"/>
  <outline>
    <contour>
      <point x="253" y="1226" type="line"/>
      <point x="56" y="1536" type="line"/>
      <point x="-259" y="1536" type="line"/>
      <point x="18" y="1226" type="line"/>
    </contour>
  </outline>
</glyph>
<glyph name="_smart.fa" format="2">
  <anchor x="433" y="54" name="_fa"/>
  <outline>
    <contour>
      <point x="300" y="603" type="line"/>
      <point x="59" y="603" type="line"/>
      <point x="88" y="520" type="line"/>
      <point x="164" y="520" type="line"/>
      <point x="331" y="45" type="line"/>
      <point x="496" y="45" type="line"/>
    </contour>
  </outline>
</glyph>
<glyph name="_smart.hat.002" format="2">
  <anchor x="541" y="8" name="_hat.002"/>
  <outline>
    <contour>
      <point x="213" y="1" type="line" name="❌"/>
      <point x="877" y="1" type="line" name="❌"/>
      <point x="877" y="156" type="line"/>
      <point x="213" y="156" type="line"/>
    </contour>
  </outline>
</glyph>
<glyph name="_smart.ho.ring" format="2">
  <anchor x="16" y="1084" name="_ho.ring"/>
  <outline>
    <contour>
      <point x="-287" y="892" type="curve" smooth="yes"/>
      <point x="-119" y="892"/>
      <point x="15" y="1014"/>
      <point x="15" y="1170" type="curve" smooth="yes"/>
      <point x="15" y="1320"/>
      <point x="-112" y="1442"/>
      <point x="-287" y="1442" type="curve" smooth="yes"/>
      <point x="-459" y="1442"/>
      <point x="-589" y="1323"/>
      <point x="-589" y="1170" type="curve" smooth="yes"/>
      <point x="-589" y="1011"/>
      <point x="-454" y="892"/>
    </contour>
    <contour>
      <point x="-337" y="1016" type="curve" smooth="yes"/>
      <point x="-453" y="1016"/>
      <point x="-529" y="1101"/>
      <point x="-529" y="1209" type="curve" smooth="yes"/>
      <point x="-529" y="1315"/>
      <point x="-456" y="1400"/>
      <point x="-337" y="1400" type="curve" smooth="yes"/>
      <point x="-218" y="1400"/>
      <point x="-145" y="1315"/>
      <point x="-145" y="1209" type="curve" smooth="yes"/>
      <point x="-145" y="1101"/>
      <point x="-221" y="1016"/>
    </contour>
  </outline>
</glyph>
<glyph name="_smart.ho.ring.uniq" format="2">
  <anchor x="-1093" y="-66" name="_ho.ring.uniq"/>
  <outline>
    <contour>
      <point x="-791" y="-338" type="curve" smooth="yes"/>
      <point x="-619" y="-338"/>
      <point x="-489" y="-219"/>
      <point x="-489" y="-66" type="curve" smooth="yes"/>
      <point x="-489" y="93"/>
      <point x="-624" y="212"/>
      <point x="-791" y="212" type="curve" smooth="yes"/>
      <point x="-959" y="212"/>
      <point x="-1093" y="90"/>
      <point x="-1093" y="-66" type="curve" smooth="yes"/>
      <point x="-1093" y="-216"/>
      <point x="-966" y="-338"/>
    </contour>
    <contour>
      <point x="-671" y="-252" type="curve" smooth="yes"/>
      <point x="-762" y="-252"/>
      <point x="-819" y="-186"/>
      <point x="-819" y="-105" type="curve" smooth="yes"/>
      <point x="-819" y="-22"/>
      <point x="-760" y="44"/>
      <point x="-671" y="44" type="curve" smooth="yes"/>
      <point x="-582" y="44"/>
      <point x="-523" y="-22"/>
      <point x="-523" y="-105" type="curve" smooth="yes"/>
      <point x="-523" y="-186"/>
      <point x="-580" y="-252"/>
    </contour>
  </outline>
</glyph>
<glyph name="_smart.nose.extend" format="2">
  <anchor x="-92" y="915" name="_nose.extend"/>
  <outline>
    <contour>
      <point x="-220" y="915" type="line"/>
      <point x="-220" y="650" type="line"/>
      <point x="-92" y="650" type="line"/>
      <point x="-92" y="915" type="line"/>
    </contour>
  </outline>
</glyph>
<glyph name="_smart.raa.cap" format="2">
  <anchor x="949" y="314" name="_raa.cap"/>
  <outline>
    <contour>
      <point x="551" y="330" type="line"/>
      <point x="786" y="330" type="line"/>
      <point x="1063" y="640" type="line"/>
      <point x="748" y="640" type="line"/>
    </contour>
  </outline>
</glyph>
<glyph name="_smart.raa" format="2">
  <anchor x="-371" y="283" name="_raa"/>
  <outline>
    <contour>
      <point x="-500" y="286" type="line"/>
      <point x="-265" y="286" type="line"/>
      <point x="12" y="596" type="line"/>
      <point x="-303" y="596" type="line"/>
    </contour>
  </outline>
</glyph>
<glyph name="_smart.ri.cap" format="2">
  <anchor x="949" y="314" name="_ri.cap"/>
  <outline>
    <contour>
      <point x="1063" y="330" type="line"/>
      <point x="866" y="640" type="line"/>
      <point x="551" y="640" type="line"/>
      <point x="828" y="330" type="line"/>
    </contour>
  </outline>
</glyph>
<glyph name="_smart.tsa.belt.caps" format="2">
  <anchor x="17" y="755" name="_tsa.belt.caps"/>
  <outline>
    <contour>
      <point x="-284" y="636" type="line"/>
      <point x="309" y="636" type="line"/>
      <point x="309" y="872" type="line"/>
      <point x="-284" y="872" type="line"/>
    </contour>
  </outline>
</glyph>
<glyph name="_smart.ye.extend" format="2">
  <anchor x="203" y="-52" name="_haa.acute"/>
  <anchor x="369" y="0" name="_ye.extend"/>
  <outline>
    <contour>
      <point x="33" y="0" type="line"/>
      <point x="33" y="-290" type="line"/>
      <point x="309" y="-290" type="line"/>
      <point x="309" y="0" type="line"/>
    </contour>
  </outline>
</glyph>
<glyph name="_smart.yee" format="2">
  <anchor x="-425" y="265" name="_yee"/>
  <outline>
    <contour>
      <point x="-77" y="-128" type="curve" smooth="yes"/>
      <point x="95" y="-128"/>
      <point x="225" y="-9"/>
      <point x="225" y="144" type="curve" smooth="yes"/>
      <point x="225" y="303"/>
      <point x="90" y="422"/>
      <point x="-77" y="422" type="curve" smooth="yes"/>
      <point x="-245" y="422"/>
      <point x="-379" y="300"/>
      <point x="-379" y="144" type="curve" smooth="yes"/>
      <point x="-379" y="-6"/>
      <point x="-252" y="-128"/>
    </contour>
    <contour>
      <point x="-27" y="-86" type="curve" smooth="yes"/>
      <point x="-146" y="-86"/>
      <point x="-219" y="-1"/>
      <point x="-219" y="105" type="curve" smooth="yes"/>
      <point x="-219" y="213"/>
      <point x="-143" y="298"/>
      <point x="-27" y="298" type="curve" smooth="yes"/>
      <point x="89" y="298"/>
      <point x="165" y="213"/>
      <point x="165" y="105" type="curve" smooth="yes"/>
      <point x="165" y="-1"/>
      <point x="92" y="-86"/>
    </contour>
  </outline>
</glyph>
<glyph name="_smart.yu" format="2">
  <anchor x="149" y="726" name="_yu"/>
  <outline>
    <contour>
      <point x="147" y="656" type="line"/>
      <point x="610" y="656" type="line"/>
      <point x="610" y="892" type="line"/>
      <point x="147" y="892" type="line"/>
    </contour>
    <contour>
      <point x="447" y="546" type="line"/>
      <point x="910" y="546" type="line"/>
      <point x="910" y="782" type="line"/>
      <point x="447" y="782" type="line"/>
    </contour>
  </outline>
</glyph>
<glyph name="_smart.zha.caps" format="2">
  <anchor x="-7" y="956" name="_zha.caps"/>
  <outline>
    <contour>
      <point x="-1044" y="698" type="curve" smooth="yes"/>
      <point x="-952" y="698"/>
      <point x="-896" y="754"/>
      <point x="-896" y="834" type="curve" smooth="yes"/>
      <point x="-896" y="914"/>
      <point x="-952" y="971"/>
      <point x="-1044" y="971" type="curve" smooth="yes"/>
      <point x="-1133" y="971"/>
      <point x="-1192" y="914"/>
      <point x="-1192" y="834" type="curve" smooth="yes"/>
      <point x="-1192" y="754"/>
      <point x="-1135" y="698"/>
    </contour>
    <contour>
      <point x="336" y="708" type="curve" smooth="yes"/>
      <point x="428" y="708"/>
      <point x="484" y="764"/>
      <point x="484" y="844" type="curve" smooth="yes"/>
      <point x="484" y="924"/>
      <point x="428" y="981"/>
      <point x="336" y="981" type="curve" smooth="yes"/>
      <point x="247" y="981"/>
      <point x="188" y="924"/>
      <point x="188" y="844" type="curve" smooth="yes"/>
      <point x="188" y="764"/>
      <point x="245" y="708"/>
    </contour>
  </outline>
</glyph>
<glyph name="ba.base.cap" format="2">
  <advance width="1348"/>
  <anchor x="1113" y="-25" name="haa"/>
  <anchor x="650" y="1648" name="hat.caps"/>
  <anchor x="223" y="1656" name="hat.left"/>
  <anchor x="644" y="1496" name="he.acute.top"/>
  <anchor x="410" y="772" name="he.left.inner"/>
  <anchor x="78.101" y="764" name="he.left.outer"/>
  <anchor x="1074" y="59" name="hee"/>
  <anchor x="1175" y="133" name="hi"/>
  <anchor x="231" y="-40" name="ho"/>
  <anchor x="219.605" y="26" name="ho.caps"/>
  <anchor x="1219" y="866" name="hu"/>
  <anchor x="1111" y="-38" name="hwa"/>
  <anchor x="474" y="1387" name="ka.caps"/>
  <anchor x="671" y="1475" name="neck.caps"/>
  <outline>
    <contour>
      <point x="116" y="0" type="line"/>
      <point x="416" y="0" type="line"/>
      <point x="416" y="961" type="line" smooth="yes"/>
      <point x="416" y="1152"/>
      <point x="513" y="1235"/>
      <point x="674" y="1235" type="curve" smooth="yes"/>
      <point x="843" y="1235"/>
      <point x="931" y="1146"/>
      <point x="931" y="969" type="curve" smooth="yes"/>
      <point x="931" y="0" type="line"/>
      <point x="1232" y="0" type="line"/>
      <point x="1232" y="959" type="line" smooth="yes"/>
      <point x="1232" y="1278"/>
      <point x="1019" y="1476"/>
      <point x="674" y="1476" type="curve" smooth="yes"/>
      <point x="334" y="1476"/>
      <point x="116" y="1285"/>
      <point x="116" y="970" type="curve" smooth="yes"/>
    </contour>
  </outline>
</glyph>
<glyph name="eight.frac0" format="2">
  <advance width="751"/>
  <note>
glyph00548
</note>
  <outline>
    <contour>
      <point x="382" y="-11" type="curve" smooth="yes"/>
      <point x="575.333" y="-11"/>
      <point x="690" y="74"/>
      <point x="690" y="218" type="curve" smooth="yes"/>
      <point x="690" y="303.333"/>
      <point x="647" y="366"/>
      <point x="561" y="406" type="curve"/>
      <point x="635" y="443.333"/>
      <point x="672" y="500"/>
      <point x="672" y="576" type="curve" smooth="yes"/>
      <point x="672" y="717.333"/>
      <point x="557.333" y="800"/>
      <point x="380" y="800" type="curve" smooth="yes"/>
      <point x="202.667" y="800"/>
      <point x="89" y="714.667"/>
      <point x="89" y="576" type="curve" smooth="yes"/>
      <point x="89" y="501.333"/>
      <point x="126.667" y="444.667"/>
      <point x="202" y="406" type="curve"/>
      <point x="114.667" y="366.667"/>
      <point x="71" y="304"/>
      <point x="71" y="218" type="curve" smooth="yes"/>
      <point x="71" y="74"/>
      <point x="190" y="-11"/>
    </contour>
    <contour>
      <point x="382" y="153" type="curve" smooth="yes"/>
      <point x="318" y="153"/>
      <point x="277" y="184.667"/>
      <point x="277" y="238" type="curve" smooth="yes"/>
      <point x="277" y="292"/>
      <point x="311.333" y="319"/>
      <point x="380" y="319" type="curve" smooth="yes"/>
      <point x="450.667" y="319"/>
      <point x="486" y="292"/>
      <point x="486" y="238" type="curve" smooth="yes"/>
      <point x="486" y="184.667"/>
      <point x="444.667" y="153"/>
    </contour>
    <contour>
      <point x="382" y="485" type="curve" smooth="yes"/>
      <point x="324" y="485"/>
      <point x="295" y="510.667"/>
      <point x="295" y="562" type="curve" smooth="yes"/>
      <point x="295" y="610.667"/>
      <point x="323.333" y="635"/>
      <point x="380" y="635" type="curve" smooth="yes"/>
      <point x="438" y="635"/>
      <point x="467" y="610.667"/>
      <point x="467" y="562" type="curve" smooth="yes"/>
      <point x="467" y="510.667"/>
      <point x="438.667" y="485"/>
    </contour>
  </outline>
</glyph>
<glyph name="ha.base" format="2">
  <advance width="1264"/>
  <anchor x="979" y="-11" name="haa"/>
  <anchor x="197" y="675" name="he"/>
  <anchor x="384" y="783" name="he.left.inner"/>
  <anchor x="950" y="0" name="hee"/>
  <anchor x="1102" y="-280" name="hi"/>
  <anchor x="1159" y="1163" name="ho.ring"/>
  <anchor x="1029" y="659" name="hu"/>
  <anchor x="940" y="0" name="hwa"/>
  <outline>
    <contour>
      <point x="642" y="-28" type="curve"/>
      <point x="897" y="-28"/>
      <point x="1097" y="110"/>
      <point x="1097" y="368" type="curve" smooth="yes"/>
      <point x="1097" y="1083" type="line" name="❌"/>
      <point x="809" y="1083" type="line" name="❌"/>
      <point x="809" y="367" type="line" smooth="yes"/>
      <point x="809" y="260"/>
      <point x="753" y="187"/>
      <point x="648" y="187" type="curve" smooth="yes"/>
      <point x="534" y="187"/>
      <point x="453" y="235"/>
      <point x="453" y="367" type="curve" smooth="yes"/>
      <point x="453" y="1083" type="line" name="❌"/>
      <point x="164" y="1083" type="line" name="❌"/>
      <point x="164" y="335" type="line" smooth="yes"/>
      <point x="164" y="126"/>
      <point x="358" y="-20"/>
    </contour>
  </outline>
</glyph>
<glyph name="la.base" format="2">
  <advance width="1266"/>
  <anchor x="181" y="1332" name="aGlhat"/>
  <anchor x="977" y="-30" name="haa"/>
  <anchor x="407" y="598" name="he.left.inner"/>
  <anchor x="936" y="66" name="hee"/>
  <anchor x="1051" y="140" name="hi"/>
  <anchor x="273" y="-21" name="ho"/>
  <anchor x="1172" y="435" name="ho.ring"/>
  <anchor x="135" y="-120" name="ho.ring.uniq"/>
  <anchor x="1049" y="647" name="hu"/>
  <anchor x="976" y="-34" name="hwa"/>
  <outline>
    <contour>
      <point x="164" y="0" type="line"/>
      <point x="453" y="0" type="line"/>
      <point x="453" y="769" type="line"/>
      <point x="491" y="834"/>
      <point x="552" y="867"/>
      <point x="637" y="867" type="curve" smooth="yes"/>
      <point x="761" y="867"/>
      <point x="810" y="809"/>
      <point x="810" y="685" type="curve" smooth="yes"/>
      <point x="810" y="0" type="line"/>
      <point x="1099" y="0" type="line"/>
      <point x="1099" y="708" type="line" smooth="yes"/>
      <point x="1099" y="981"/>
      <point x="979" y="1102"/>
      <point x="742" y="1102" type="curve" smooth="yes"/>
      <point x="626" y="1102"/>
      <point x="530" y="1056"/>
      <point x="453" y="964" type="curve"/>
      <point x="453" y="1536" type="line"/>
      <point x="164" y="1536" type="line"/>
    </contour>
  </outline>
</glyph>
<glyph name="pa.base" format="2">
  <advance width="811"/>
  <anchor x="620" y="93" name="haa"/>
  <anchor x="338" y="-10" name="haa.acute"/>
  <anchor x="370" y="1339" name="hat"/>
  <anchor x="363" y="1167" name="he.acute.top"/>
  <anchor x="238" y="141" name="he.left.outer"/>
  <anchor x="409" y="50" name="hee"/>
  <anchor x="502" y="130" name="hi"/>
  <anchor x="663" y="1314" name="ho.ring"/>
  <anchor x="481" y="669" name="hu"/>
  <anchor x="413" y="12" name="hwa"/>
  <anchor x="381" y="1082" name="neck"/>
  <outline>
    <contour>
      <point x="537" y="0" type="line"/>
      <point x="537" y="870" type="line"/>
      <point x="772" y="870" type="line"/>
      <point x="772" y="1082" type="line"/>
      <point x="40" y="1082" type="line"/>
      <point x="40" y="870" type="line"/>
      <point x="250" y="870" type="line"/>
      <point x="250" y="0" type="line"/>
    </contour>
  </outline>
</glyph>
<glyph name="paa-ethiopic.liga" format="2">
  <advance width="1267"/>
  <anchor x="546.172" y="163.586" name="_haa.acute"/>
  <anchor x="939" y="15" name="haa"/>
  <anchor x="571" y="16" name="haa.acute"/>
  <anchor x="559" y="1606" name="hat.caps"/>
  <anchor x="570" y="1521" name="he.acute.top"/>
  <anchor x="628" y="52" name="hee"/>
  <anchor x="755" y="114" name="hi"/>
  <anchor x="910" y="1561" name="ho.ring"/>
  <anchor x="734.072" y="983.0" name="hu"/>
  <anchor x="589" y="-52" name="hwa"/>
  <anchor x="612.764" y="1532.0" name="neck.caps"/>
  <outline>
    <contour>
      <point x="68" y="166" type="line"/>
      <point x="235" y="0" type="line"/>
      <point x="690" y="0" type="line" name="❌"/>
      <point x="607" y="166" type="line" name="❌"/>
    </contour>
    <component base="pa.base.cap"/>
  </outline>
</glyph>
<glyph name="ra.base" format="2">
  <advance width="1120"/>
  <anchor x="829" y="111" name="fa"/>
  <anchor x="708" y="-53" name="haa"/>
  <anchor x="685" y="-51" name="haa.acute"/>
  <anchor x="598" y="937" name="hat"/>
  <anchor x="344.062" y="1041" name="hat.left"/>
  <anchor x="1021" y="29" name="hee"/>
  <anchor x="1140" y="962" name="ho.ring"/>
  <anchor x="578" y="-140" name="hu"/>
  <anchor x="688" y="4" name="hwa"/>
  <anchor x="951.93" y="305" name="ra"/>
  <anchor x="787" y="263" name="raa"/>
  <anchor x="1073" y="224" name="ri"/>
  <outline>
    <contour>
      <point x="568" y="-20" type="curve"/>
      <point x="1050" y="-20" type="line"/>
      <point x="1050" y="174" type="line"/>
      <point x="667" y="174" type="line"/>
      <point x="472" y="168"/>
      <point x="474" y="270"/>
      <point x="474" y="517" type="curve" smooth="yes"/>
      <point x="474" y="1082" type="line"/>
      <point x="186" y="1082" type="line"/>
      <point x="186" y="524" type="line" smooth="yes"/>
      <point x="186" y="187"/>
      <point x="275" y="-20"/>
    </contour>
  </outline>
</glyph>
<glyph name="tsa.base" format="2">
  <advance width="1081"/>
  <anchor x="832" y="-10" name="haa"/>
  <anchor x="567" y="1353" name="hat"/>
  <anchor x="1228" y="788" name="he"/>
  <anchor x="813" y="50" name="hee"/>
  <anchor x="886" y="120" name="hi"/>
  <anchor x="239" y="-10" name="ho"/>
  <anchor x="789" y="459" name="hu"/>
  <anchor x="834" y="0" name="hwa"/>
  <anchor x="509" y="1085" name="neck"/>
  <outline>
    <contour>
      <point x="125" y="0" type="line"/>
      <point x="421" y="0" type="line"/>
      <point x="421" y="289" type="line" smooth="yes"/>
      <point x="421" y="385"/>
      <point x="467" y="495"/>
      <point x="535" y="498" type="curve" smooth="yes"/>
      <point x="632" y="502"/>
      <point x="670" y="434"/>
      <point x="670" y="337" type="curve" smooth="yes"/>
      <point x="670" y="0" type="line"/>
      <point x="956" y="0" type="line"/>
      <point x="956" y="300" type="line" smooth="yes"/>
      <point x="956" y="416"/>
      <point x="904" y="494"/>
      <point x="789" y="551" type="curve"/>
      <point x="898" y="608"/>
      <point x="948" y="683"/>
      <point x="948" y="788" type="curve" smooth="yes"/>
      <point x="948" y="965"/>
      <point x="781" y="1105"/>
      <point x="548" y="1105" type="curve" smooth="yes"/>
      <point x="343" y="1105"/>
      <point x="135" y="990"/>
      <point x="135" y="785" type="curve" smooth="yes"/>
      <point x="135" y="676"/>
      <point x="190" y="605"/>
      <point x="289" y="551" type="curve"/>
      <point x="178" y="494"/>
      <point x="125" y="417"/>
      <point x="125" y="303" type="curve" smooth="yes"/>
    </contour>
    <contour>
      <point x="537" y="670" type="curve" smooth="yes"/>
      <point x="435" y="670"/>
      <point x="374" y="716"/>
      <point x="374" y="777" type="curve" smooth="yes"/>
      <point x="374" y="853"/>
      <point x="450" y="912"/>
      <point x="537" y="912" type="curve" smooth="yes"/>
      <point x="633" y="912"/>
      <point x="709" y="851"/>
      <point x="709" y="778" type="curve" smooth="yes"/>
      <point x="709" y="720"/>
      <point x="660" y="670"/>
    </contour>
  </outline>
</glyph>
<glyph name="two.frac0" format="2">
  <advance width="751"/>
  <note>
glyph00453
</note>
  <outline>
    <contour>
      <point x="73" y="0" type="line"/>
      <point x="693" y="0" type="line"/>
      <point x="693" y="164" type="line"/>
      <point x="342" y="164" type="line"/>
      <point x="490" y="279" type="line" smooth="yes"/>
      <point x="634" y="395"/>
      <point x="670" y="458.667"/>
      <point x="670" y="552" type="curve" smooth="yes"/>
      <point x="670" y="710.667"/>
      <point x="558.333" y="800"/>
      <point x="361" y="800" type="curve" smooth="yes"/>
      <point x="181" y="800"/>
      <point x="55" y="680.667"/>
      <point x="55" y="526" type="curve"/>
      <point x="261" y="526" type="line"/>
      <point x="261" y="588.667"/>
      <point x="303.333" y="635"/>
      <point x="370" y="635" type="curve" smooth="yes"/>
      <point x="433.333" y="635"/>
      <point x="465" y="607"/>
      <point x="465" y="551" type="curve" smooth="yes"/>
      <point x="465" y="503"/>
      <point x="404" y="434"/>
      <point x="360" y="395" type="curve" smooth="yes"/>
      <point x="73" y="138" type="line"/>
    </contour>
  </outline>
</glyph>
<glyph name="wa.base" format="2">
  <advance width="1848"/>
  <anchor x="940" y="-40" name="haa"/>
  <anchor x="880" y="-110" name="haa.acute"/>
  <anchor x="1015" y="1363" name="hat"/>
  <anchor x="915" y="1232" name="he.acute.top"/>
  <anchor x="976" y="0" name="hee"/>
  <anchor x="1074" y="-325" name="hi"/>
  <anchor x="1180" y="1300" name="ho.ring"/>
  <anchor x="1658" y="743" name="hu"/>
  <anchor x="897" y="-40" name="hwa"/>
  <anchor x="922" y="1092" name="neck"/>
  <outline>
    <contour>
      <point x="527" y="-20" type="curve" smooth="yes"/>
      <point x="581" y="-20"/>
      <point x="729" y="-16"/>
      <point x="822" y="0" type="curve"/>
      <point x="1010" y="0" type="line"/>
      <point x="1103" y="-16"/>
      <point x="1251" y="-20"/>
      <point x="1305" y="-20" type="curve" smooth="yes"/>
      <point x="1556" y="-20"/>
      <point x="1730" y="205"/>
      <point x="1730" y="536" type="curve" smooth="yes"/>
      <point x="1730" y="882"/>
      <point x="1558" y="1102"/>
      <point x="1303" y="1102" type="curve" smooth="yes"/>
      <point x="1250" y="1102"/>
      <point x="1082" y="1097"/>
      <point x="1039" y="1082" type="curve"/>
      <point x="793" y="1082" type="line"/>
      <point x="750" y="1097"/>
      <point x="582" y="1102"/>
      <point x="529" y="1102" type="curve" smooth="yes"/>
      <point x="274" y="1102"/>
      <point x="102" y="882"/>
      <point x="102" y="536" type="curve" smooth="yes"/>
      <point x="102" y="205"/>
      <point x="276" y="-20"/>
    </contour>
    <contour>
      <point x="676" y="137" type="curve" smooth="yes"/>
      <point x="497" y="137"/>
      <point x="390" y="284"/>
      <point x="390" y="529" type="curve" smooth="yes"/>
      <point x="390" y="804"/>
      <point x="497" y="945"/>
      <point x="678" y="945" type="curve" smooth="yes"/>
      <point x="713" y="945"/>
      <point x="766" y="940"/>
      <point x="796" y="931" type="curve"/>
      <point x="796" y="163" type="line"/>
      <point x="763" y="147"/>
      <point x="709" y="137"/>
    </contour>
    <contour>
      <point x="1156" y="137" type="curve" smooth="yes"/>
      <point x="1123" y="137"/>
      <point x="1069" y="147"/>
      <point x="1036" y="163" type="curve"/>
      <point x="1036" y="931" type="line"/>
      <point x="1066" y="940"/>
      <point x="1119" y="945"/>
      <point x="1154" y="945" type="curve" smooth="yes"/>
      <point x="1335" y="945"/>
      <point x="1442" y="804"/>
      <point x="1442" y="529" type="curve" smooth="yes"/>
      <point x="1442" y="284"/>
      <point x="1335" y="137"/>
    </contour>
  </outline>
</glyph>
<glyph name="ya.base.cap" format="2">
  <advance width="1321"/>
  <anchor x="291.397" y="10" name="da.caps"/>
  <anchor x="1153" y="14" name="haa"/>
  <anchor x="665.612" y="1642" name="hat.caps"/>
  <anchor x="1482" y="1009" name="he"/>
  <anchor x="259.536" y="1466" name="he.left.outer"/>
  <anchor x="1209" y="-8" name="hee"/>
  <anchor x="1285" y="105" name="hi"/>
  <anchor x="249" y="-26" name="ho"/>
  <anchor x="1154.341" y="319" name="hu"/>
  <anchor x="1162" y="-2" name="hwa"/>
  <anchor x="655.388" y="1480" name="neck.caps"/>
  <outline>
    <contour>
      <point x="130" y="0" type="line"/>
      <point x="430" y="0" type="line"/>
      <point x="430" y="513" type="line"/>
      <point x="693" y="513" type="line" smooth="yes"/>
      <point x="1038.333" y="513"/>
      <point x="1245" y="688.667"/>
      <point x="1245" y="974" type="curve" smooth="yes"/>
      <point x="1242.593" y="1323.966"/>
      <point x="854" y="1456"/>
      <point x="698" y="1456" type="curve" smooth="yes"/>
      <point x="130" y="1456" type="line"/>
    </contour>
    <contour>
      <point x="430" y="756" type="line"/>
      <point x="430" y="1213" type="line"/>
      <point x="705" y="1213" type="line" smooth="yes"/>
      <point x="853" y="1213"/>
      <point x="942" y="1114.667"/>
      <point x="942" y="972" type="curve" smooth="yes"/>
      <point x="942" y="833.333"/>
      <point x="856.667" y="756"/>
      <point x="698" y="756" type="curve" smooth="yes"/>
    </contour>
  </outline>
</glyph>
<glyph name="ya.base" format="2">
  <advance width="1119"/>
  <anchor x="217" y="234" name="da"/>
  <anchor x="586" y="-199" name="di"/>
  <anchor x="690" y="234" name="du"/>
  <anchor x="771" y="-2" name="haa"/>
  <anchor x="436" y="-54" name="haa.acute"/>
  <anchor x="499" y="1341" name="hat"/>
  <anchor x="1243" y="756" name="he"/>
  <anchor x="317" y="1086" name="he.left.outer"/>
  <anchor x="742" y="44" name="hee"/>
  <anchor x="900" y="11" name="hha"/>
  <anchor x="718" y="-269" name="hi"/>
  <anchor x="199" y="-10" name="ho"/>
  <anchor x="757" y="179" name="hu"/>
  <anchor x="773" y="0" name="hwa"/>
  <anchor x="534" y="1112" name="neck"/>
  <anchor x="397" y="13" name="ye"/>
  <anchor x="359" y="5" name="ye.extend"/>
  <anchor x="494" y="241" name="yee"/>
  <anchor x="204" y="381" name="yi"/>
  <anchor x="304" y="225" name="yu"/>
  <outline>
    <contour>
      <point x="264" y="0" type="line"/>
      <point x="543" y="0" type="line"/>
      <point x="403" y="456" type="line"/>
      <point x="886" y="456" type="line" smooth="yes"/>
      <point x="937" y="456"/>
      <point x="1006" y="519"/>
      <point x="1012" y="565" type="curve" smooth="yes"/>
      <point x="1056" y="907"/>
      <point x="878" y="1102"/>
      <point x="597" y="1102" type="curve" smooth="yes"/>
      <point x="425" y="1102"/>
      <point x="268" y="1001"/>
      <point x="186" y="833" type="curve" smooth="yes"/>
      <point x="145" y="748"/>
      <point x="106" y="600"/>
      <point x="134" y="494" type="curve" smooth="yes"/>
    </contour>
    <contour>
      <point x="383" y="590" type="line"/>
      <point x="394" y="796"/>
      <point x="456" y="888"/>
      <point x="626" y="886" type="curve" smooth="yes"/>
      <point x="724" y="885"/>
      <point x="825" y="792"/>
      <point x="806" y="590" type="curve"/>
    </contour>
  </outline>
</glyph>
<glyph name="ye-ethiopic.liga" format="2">
  <advance width="1384"/>
  <anchor x="354.397" y="10.0" name="da.caps"/>
  <anchor x="1216" y="14" name="haa"/>
  <anchor x="728.612" y="1642.0" name="hat.caps"/>
  <anchor x="1545" y="1009" name="he"/>
  <anchor x="322.536" y="1466.0" name="he.left.outer"/>
  <anchor x="1272" y="-8" name="hee"/>
  <anchor x="1348" y="105" name="hi"/>
  <anchor x="312" y="-26" name="ho"/>
  <anchor x="1217.341" y="319.0" name="hu"/>
  <anchor x="1225" y="-2" name="hwa"/>
  <anchor x="718.388" y="1480.0" name="neck.caps"/>
  <outline>
    <contour>
      <point x="134" y="-217" type="curve"/>
      <point x="301" y="-194" type="line"/>
      <point x="292" y="-133"/>
      <point x="324" y="-93"/>
      <point x="370" y="-87" type="curve" smooth="yes"/>
      <point x="481" y="-71"/>
      <point x="788" y="-95"/>
      <point x="922" y="-76" type="curve" smooth="yes"/>
      <point x="1048" y="-58"/>
      <point x="1131" y="119"/>
      <point x="1110" y="269" type="curve"/>
      <point x="943" y="257" type="line"/>
      <point x="951" y="196"/>
      <point x="917" y="107"/>
      <point x="871" y="101" type="curve" smooth="yes"/>
      <point x="751" y="84"/>
      <point x="429" y="104"/>
      <point x="319" y="89" type="curve" smooth="yes"/>
      <point x="194" y="71"/>
      <point x="112" y="-60"/>
    </contour>
    <component base="ya.base.cap" xOffset="63"/>
  </outline>
</glyph>
